<svg width="13" height="11" viewBox="0 0 13 11" fill="none" xmlns="http://www.w3.org/2000/svg">
<path d="M0.018412 6.61528C0.0173861 6.50746 0.00127802 4.815 0.000251962 4.70718C-0.000774094 4.59936 0.0993221 4.51908 0.204178 4.54359C0.309035 4.5681 4.78798 5.61558 4.78798 5.61558C4.78798 5.61558 8.8559 4.58193 8.98418 4.54933C9.11246 4.51673 9.15304 4.35435 9.05521 4.26511C8.95738 4.17586 6.22144 1.67977 6.1528 1.61716C6.08416 1.55455 6.08009 1.44778 6.14377 1.38011C6.20745 1.31245 7.1857 0.27279 7.24892 0.2056C7.31214 0.138411 7.41792 0.135612 7.48459 0.199363C7.55125 0.263115 12.8173 5.29803 12.8838 5.36159C12.9503 5.42515 12.9526 5.53066 12.889 5.59706C12.8254 5.66347 7.84562 10.8618 7.78223 10.928C7.71884 10.9942 7.61395 10.9965 7.54766 10.9332C7.48138 10.8699 6.46385 9.89826 6.39639 9.83386C6.32894 9.76945 6.32759 9.66213 6.39337 9.59604C6.45916 9.52995 9.00189 6.97562 9.09378 6.88331C9.18568 6.791 9.14068 6.63352 9.0139 6.60387C8.88712 6.57423 4.78798 5.61558 4.78798 5.61558C4.78798 5.61558 0.32979 6.74843 0.225418 6.77494C0.121046 6.80145 0.0194379 6.72309 0.018412 6.61528Z" fill="white"/>
</svg>
