<svg width="13" height="11" viewBox="0 0 13 11" fill="none" xmlns="http://www.w3.org/2000/svg">
<g clip-path="url(#clip0_681_3186)">
<path d="M12.9816 4.38472C12.9826 4.49254 12.9987 6.185 12.9997 6.29282C13.0008 6.40064 12.9007 6.48092 12.7958 6.45641C12.691 6.4319 8.21202 5.38442 8.21202 5.38442C8.21202 5.38442 4.1441 6.41807 4.01582 6.45067C3.88754 6.48327 3.84696 6.64565 3.94479 6.73489C4.04262 6.82414 6.77856 9.32023 6.8472 9.38284C6.91584 9.44545 6.91991 9.55223 6.85623 9.61989C6.79255 9.68755 5.8143 10.7272 5.75108 10.7944C5.68786 10.8616 5.58208 10.8644 5.51541 10.8006C5.44875 10.7369 0.182668 5.70197 0.116203 5.63841C0.0497384 5.57485 0.0474296 5.46934 0.111038 5.40294C0.174646 5.33654 5.15438 0.138211 5.21777 0.0720279C5.28116 0.00584384 5.38605 0.00351591 5.45234 0.0667836C5.51862 0.130052 6.53615 1.10174 6.60361 1.16614C6.67106 1.23055 6.67241 1.33787 6.60663 1.40396C6.54084 1.47005 3.99811 4.02438 3.90622 4.11669C3.81432 4.209 3.85932 4.36648 3.9861 4.39613C4.11288 4.42577 8.21202 5.38442 8.21202 5.38442C8.21202 5.38442 12.6702 4.25157 12.7746 4.22506C12.879 4.19855 12.9806 4.27691 12.9816 4.38472Z" fill="white"/>
</g>
<defs>
<clipPath id="clip0_681_3186">
<rect width="13" height="11" fill="white" transform="translate(13 11) rotate(180)"/>
</clipPath>
</defs>
</svg>
