<svg width="16" height="16" viewBox="0 0 16 16" fill="none" xmlns="http://www.w3.org/2000/svg">
<g clip-path="url(#clip0_845_924)">
<path d="M0.821256 8.81899C0.820072 8.69156 0.801486 6.69138 0.800302 6.56396C0.799118 6.43654 0.914614 6.34166 1.0356 6.37063C1.15659 6.3996 6.32461 7.63752 6.32461 7.63752C6.32461 7.63752 11.0184 6.41594 11.1664 6.37741C11.3144 6.33889 11.3612 6.14699 11.2483 6.04151C11.1354 5.93604 7.9786 2.98612 7.8994 2.91212C7.82019 2.83813 7.8155 2.71194 7.88898 2.63198C7.96246 2.55201 9.0912 1.32332 9.16415 1.24391C9.2371 1.16451 9.35915 1.1612 9.43607 1.23654C9.51299 1.31189 15.5892 7.26224 15.6659 7.33736C15.7426 7.41247 15.7453 7.53716 15.6719 7.61564C15.5985 7.69412 9.85265 13.8376 9.77951 13.9158C9.70637 13.994 9.58533 13.9968 9.50885 13.922C9.43237 13.8472 8.2583 12.6989 8.18047 12.6228C8.10264 12.5466 8.10107 12.4198 8.17698 12.3417C8.25289 12.2636 11.1868 9.24485 11.2928 9.13575C11.3989 9.02666 11.3469 8.84054 11.2007 8.80551C11.0544 8.77047 6.32461 7.63752 6.32461 7.63752C6.32461 7.63752 1.18054 8.97635 1.06011 9.00768C0.93968 9.03901 0.82244 8.94641 0.821256 8.81899Z" fill="#0A0A0C"/>
</g>
<defs>
<clipPath id="clip0_845_924">
<rect width="15" height="13" fill="white" transform="translate(0.799805 1)"/>
</clipPath>
</defs>
</svg>
