<svg width="10" height="10" viewBox="0 0 10 10" fill="none" xmlns="http://www.w3.org/2000/svg">
<path d="M3.35008 5.9428C3.87078 5.4221 3.87078 4.57788 3.35008 4.05718L0.545228 1.25232C0.467123 1.17422 0.467123 1.04759 0.545228 0.969482L0.969492 0.545218C1.0476 0.467113 1.17423 0.467113 1.25233 0.545218L4.05719 3.35007C4.57789 3.87077 5.42211 3.87077 5.94281 3.35007L8.74767 0.545218C8.82577 0.467113 8.9524 0.467113 9.03051 0.545218L9.45477 0.969482C9.53288 1.04759 9.53288 1.17422 9.45477 1.25232L6.64992 4.05718C6.12922 4.57788 6.12922 5.4221 6.64992 5.9428L9.45477 8.74766C9.53288 8.82576 9.53288 8.95239 9.45477 9.0305L9.03051 9.45476C8.9524 9.53287 8.82577 9.53287 8.74767 9.45476L5.94281 6.64991C5.42211 6.12921 4.57789 6.12921 4.05719 6.64991L1.25233 9.45476C1.17423 9.53287 1.0476 9.53287 0.969492 9.45476L0.545228 9.0305C0.467123 8.95239 0.467123 8.82576 0.545228 8.74766L3.35008 5.9428Z" fill="white"/>
</svg>
