<svg width="16" height="14" viewBox="0 0 16 14" fill="none" xmlns="http://www.w3.org/2000/svg">
<path d="M6.88446 8.18695H16V13.5435H15.2351V10.287C15.2351 10.2565 15.2032 10.2261 15.1713 10.287C14.7888 10.8957 12.6215 14 8.06375 14C3.50598 14 0 10.8652 0 7C0 3.13478 3.60159 0 8.06375 0C12.8463 0 16 3.59376 16 6.20869H12.7809C12.0797 5.35652 11.1554 4.53478 10.008 3.83478C6.69322 1.73478 3.05976 1.4 1.88047 3.10435C0.701181 4.8087 2.4223 7.88261 5.70517 9.98261C12.0761 14.0383 14.6577 9.67784 14.9514 9.12562C14.9655 9.09903 14.9442 9.06957 14.9129 9.06957H6.7251V8.18695H6.88446Z" fill="white"/>
</svg>
