<svg width="10" height="10" viewBox="0 0 10 10" fill="none" xmlns="http://www.w3.org/2000/svg">
<path fill-rule="evenodd" clip-rule="evenodd" d="M5.54774 1.75966C3.95743 1.81307 1.99721 1.79398 0.665453 1.46349C0.560277 1.43739 0.499087 1.32995 0.525931 1.22497L0.727945 0.434854C0.755827 0.325802 0.867885 0.26141 0.977378 0.287507C2.11106 0.557717 3.88122 0.588365 5.46865 0.535052C6.29499 0.507301 7.04684 0.458036 7.59228 0.415667C7.8648 0.394498 8.08529 0.37509 8.23719 0.361022C8.31313 0.353989 8.3719 0.348292 8.41141 0.344383L8.45599 0.339915L8.46695 0.338791L8.46952 0.338524L8.99738 0.283284C9.12381 0.270052 9.23035 0.376596 9.2171 0.503031L9.16188 1.03025L9.16155 1.03345L9.16043 1.04441L9.15596 1.08898C9.15204 1.12849 9.14634 1.18725 9.1393 1.26319C9.12523 1.41508 9.1058 1.63555 9.08461 1.90805C9.0422 2.45345 8.99289 3.20524 8.96509 4.03153C8.91167 5.61886 8.94223 7.3889 9.21242 8.52255C9.23852 8.63204 9.17413 8.7441 9.06508 8.77199L8.27496 8.974C8.16998 9.00084 8.06254 8.93965 8.03644 8.83448C7.70596 7.50271 7.68697 5.54257 7.74048 3.95236C7.75042 3.65715 7.76301 3.37143 7.77704 3.10084C7.78658 2.91684 7.56356 2.81656 7.43328 2.94683L1.3388 9.04131C1.2607 9.11942 1.13407 9.11942 1.05596 9.04131L0.459035 8.44439C0.38093 8.36628 0.380931 8.23965 0.459035 8.16154L6.55369 2.06689C6.68396 1.93662 6.58369 1.71361 6.3997 1.72314C6.12898 1.73716 5.84311 1.74974 5.54774 1.75966Z" fill="white"/>
</svg>
