<svg width="14" height="14" viewBox="0 0 14 14" fill="none" xmlns="http://www.w3.org/2000/svg">
<path d="M7.30008 7.01349L5.85547 1.9209C5.93747 -0.265064 8.92068 -0.123733 8.85734 1.9209L7.30008 7.01349Z" fill="white"/>
<path d="M5.80926 11.9263C5.96325 14.3182 8.85913 14.1769 8.8438 11.9263L7.30053 7.01367L5.80859 11.9263H5.80926Z" fill="white"/>
<path d="M7.31858 7.03336L2.69611 4.45406C1.20817 2.85008 3.41741 0.840781 4.81868 2.33143L7.31858 7.03336Z" fill="white"/>
<path d="M9.7379 11.5618C11.5385 13.1438 13.4857 10.9965 11.8838 9.41583L7.31934 7.0332L9.7379 11.5618Z" fill="white"/>
<path d="M7.34633 7.03291L2.25387 8.47756C0.0679593 8.39556 0.209287 5.41227 2.25387 5.4756L7.34633 7.03291Z" fill="white"/>
<path d="M12.2591 8.52492C14.651 8.37092 14.5097 5.47496 12.2591 5.4903L7.34668 7.0336L12.2591 8.52558V8.52492Z" fill="white"/>
<path d="M7.3672 7.01562L4.78797 11.6382C3.18404 13.1262 1.17479 10.9169 2.6654 9.51559L7.3672 7.01562Z" fill="white"/>
<path d="M11.8947 4.59615C13.4766 2.79552 11.3294 0.848211 9.74878 2.45019L7.36621 7.01479L11.8947 4.59615Z" fill="white"/>
</svg>
