<svg width="26" height="26" viewBox="0 0 26 26" fill="none" xmlns="http://www.w3.org/2000/svg">
<path d="M1.31034 5.40505C0.721531 4.85095 0.428711 4.16507 0.428711 3.34899C0.428711 2.53291 0.723097 1.81685 1.31034 1.26115C1.89915 0.707046 2.65709 0.429199 3.58572 0.429199C4.51434 0.429199 5.24254 0.707046 5.82978 1.26115C6.41859 1.81526 6.71141 2.51227 6.71141 3.34899C6.71141 4.18571 6.41702 4.85095 5.82978 5.40505C5.24097 5.95916 4.49399 6.23701 3.58572 6.23701C2.67745 6.23701 1.89915 5.95916 1.31034 5.40505ZM6.21657 8.58364V25.5721H0.92198V8.58364H6.21657Z" fill="#DEFCFF" fill-opacity="0.8"/>
<path d="M23.8415 10.2607C24.9956 11.5309 25.5719 13.2742 25.5719 15.4938V25.2709H20.5436V16.1829C20.5436 15.0635 20.257 14.1935 19.6854 13.5742C19.1138 12.955 18.3434 12.6439 17.3787 12.6439C16.4141 12.6439 15.6436 12.9535 15.072 13.5742C14.5004 14.1935 14.2139 15.0635 14.2139 16.1829V25.2709H9.15576V8.53488H14.2139V10.7545C14.7259 10.0146 15.4166 9.43035 16.2841 9.00009C17.1517 8.56982 18.1273 8.35547 19.2125 8.35547C21.1449 8.35547 22.6889 8.99055 23.8415 10.2591V10.2607Z" fill="#DEFCFF" fill-opacity="0.8"/>
</svg>
