<svg width="104" height="44" viewBox="0 0 104 44" fill="none" xmlns="http://www.w3.org/2000/svg">
<path d="M12.9783 13.6756H27.5143V22.6209H26.2945V17.1826C26.2945 17.1318 26.2437 17.0809 26.1928 17.1826C25.5829 18.1991 22.1268 23.3833 14.8588 23.3833C7.59078 23.3833 2 18.1483 2 11.6935C2 5.23864 7.74325 0.00363541 14.8588 0.00363541C22.4852 0.00363541 27.5143 6.00511 27.5143 10.372H22.3809C21.2628 8.94888 19.7888 7.57661 17.9591 6.40763C12.6733 2.90068 6.87922 2.34161 4.99867 5.18782C3.11813 8.03404 5.86271 13.1674 11.0977 16.6743C21.2571 23.4472 25.3738 16.1654 25.8421 15.2432C25.8647 15.1988 25.8306 15.1496 25.7808 15.1496H12.7241V13.6756H12.9783Z" fill="white"/>
<path d="M58.7932 13.672H73.3292V22.6173H72.1094V17.179C72.1094 17.1281 72.0586 17.0773 72.0078 17.179C71.3979 18.1955 67.9417 23.3796 60.6737 23.3796C53.4057 23.3796 47.8149 18.1446 47.8149 11.6898C47.8149 5.23501 53.5582 0 60.6737 0C68.3001 0 73.3292 6.00148 73.3292 10.3684H68.1959C67.0777 8.94525 65.6038 7.57297 63.7741 6.40399C58.4882 2.89704 52.6942 2.33797 50.8136 5.18419C48.9331 8.0304 51.6777 13.1638 56.9127 16.6707C67.072 23.4436 71.1887 16.1617 71.6571 15.2396C71.6796 15.1951 71.6455 15.1459 71.5957 15.1459H58.5391V13.672H58.7932Z" fill="white"/>
<path d="M41.8233 0.665543V23.3845H36.5375V9.30584C36.5375 6.84852 39.0456 5.64531 40.0197 5.27064C40.0912 5.24314 40.0692 5.13818 39.9926 5.13818H33.2847V0.665543H41.8742H41.8233Z" fill="white"/>
<path d="M96.9742 0.665543L88.6884 15.0217C88.6634 15.065 88.6502 15.1142 88.6502 15.1642V23.3845H83.4152V15.3541L83.3775 15.2134L74.9766 0.665543H80.3231L87.8448 13.6929C87.8747 13.7446 87.9493 13.7446 87.9792 13.6929L95.5001 0.665543H96.9742Z" fill="white"/>
<path d="M56.1567 42.4446C56.7967 42.6713 57.5167 42.7846 58.3167 42.7846C59.6234 42.7846 60.6434 42.4913 61.3767 41.9046C62.1101 41.318 62.4767 40.5046 62.4767 39.4646C62.4767 38.758 62.2634 38.1646 61.8367 37.6846C61.4101 37.2046 60.6701 36.738 59.6167 36.2846C58.8167 35.938 58.2567 35.6113 57.9367 35.3046C57.6167 34.9846 57.4567 34.618 57.4567 34.2046C57.4567 33.7113 57.6367 33.3246 57.9967 33.0446C58.3567 32.7646 58.8501 32.6246 59.4767 32.6246C60.1434 32.6246 60.6978 32.7106 61.1378 33.0173C62.0096 33.6249 62.6602 34.5576 62.5835 35.0915C62.6946 35.1403 62.819 35.1646 62.9567 35.1646C63.1967 35.1646 63.3834 35.0913 63.5167 34.9446C63.6501 34.798 63.7167 34.5913 63.7167 34.3246C63.7167 33.8713 63.6344 33.3291 63.2744 32.9424C62.9405 32.5714 62.4077 32.3801 61.8322 32.1734L61.6967 32.1246C61.0701 31.8846 60.3901 31.7646 59.6567 31.7646C58.4967 31.7646 57.5634 32.038 56.8567 32.5846C56.1634 33.1313 55.8167 33.8646 55.8167 34.7846C55.8167 35.478 56.0434 36.0846 56.4967 36.6046C56.9501 37.1113 57.6634 37.5646 58.6367 37.9646C59.3834 38.2713 59.9234 38.598 60.2567 38.9446C60.6034 39.2913 60.7767 39.678 60.7767 40.1046C60.7767 40.6513 60.5634 41.0913 60.1367 41.4246C59.7101 41.7446 59.1501 41.9046 58.4567 41.9046C57.7901 41.9046 57.2301 41.758 56.7767 41.4646C56.3234 41.158 56.0101 40.718 55.8367 40.1446C55.6234 39.5846 55.2967 39.3046 54.8567 39.3046C54.6301 39.3046 54.4501 39.378 54.3167 39.5246C54.1967 39.6713 54.1367 39.8846 54.1367 40.1646C54.1367 40.658 54.3101 41.1046 54.6567 41.5046C55.0167 41.9046 55.5167 42.218 56.1567 42.4446Z" fill="#DEFCFF"/>
<path d="M63.678 42.6646C62.9446 42.6646 62.3713 42.4513 61.958 42.0246C61.5446 41.5846 61.338 41.0113 61.338 40.3046C61.338 39.9313 61.4046 39.4913 61.538 38.9846L63.158 32.9646H61.138L59.418 31.9446H63.418L65.198 28.7646H66.078L65.238 31.9446H72.858L72.3058 32.9646H64.978L63.358 39.0046C63.2246 39.4713 63.158 39.8646 63.158 40.1846C63.158 40.5713 63.2646 40.8913 63.478 41.1446C63.7046 41.3846 64.0246 41.5046 64.438 41.5046C64.8113 41.5046 65.178 41.4046 65.538 41.2046C65.898 41.0046 66.2313 40.7113 66.538 40.3246L66.798 40.5246C66.4913 41.178 66.0646 41.698 65.518 42.0846C64.9713 42.4713 64.358 42.6646 63.678 42.6646Z" fill="#DEFCFF"/>
<path d="M70.4959 43.0042C69.6426 43.0042 68.9826 42.7508 68.5159 42.2442C68.0626 41.7375 67.8359 41.0108 67.8359 40.0642C67.8359 39.4642 67.9693 38.7708 68.2359 37.9842C68.5159 37.1842 69.0759 35.8842 69.9159 34.0842L70.1159 33.6442L68.7359 32.2842H72.6159L71.6959 34.2642C70.9359 35.8775 70.4026 37.1242 70.0959 38.0042C69.7893 38.8708 69.6359 39.5642 69.6359 40.0842C69.6359 40.6175 69.7693 41.0442 70.0359 41.3642C70.3159 41.6708 70.6959 41.8242 71.1759 41.8242C72.1626 41.8242 73.1093 41.1375 74.0159 39.7642C74.9359 38.3908 75.7426 36.4308 76.4359 33.8842L76.5159 33.5842L75.2159 32.2842L81.5508 32.2451L78.2472 33.5842L75.8968 38.7671C75.8034 39.1405 76.4759 40.4042 76.4759 40.7642C76.4759 41.1242 76.5359 41.4042 76.6559 41.6042C76.7893 41.7908 76.9826 41.8842 77.2359 41.8842C77.5159 41.8842 77.9234 42.058 78.1367 41.7646V42.2646C78.0034 42.638 77.8026 42.3042 77.4959 42.5042C77.2026 42.7042 77.5634 42.7646 77.1367 42.7646C76.6167 42.7646 76.4167 42.6113 76.1367 42.2646C75.8567 41.918 76.9663 42.6042 75.9663 41.6042C75.9663 43.1042 74.8426 40.1175 74.9359 39.7442C73.7226 41.9175 72.2426 43.0042 70.4959 43.0042Z" fill="#DEFCFF"/>
<path d="M78.0567 43.0046C77.1234 43.0046 76.4034 42.718 75.8967 42.1446C75.3901 41.5713 75.1367 40.7646 75.1367 39.7246C75.1367 38.4846 75.4834 37.258 76.1767 36.0446C76.8834 34.818 77.7834 33.818 78.8767 33.0446C79.9834 32.2713 81.0901 32.2362 82.1967 32.2362C83.1167 32.2362 83.8567 32.2113 84.4167 32.8646L85.3567 29.3246L83.7167 27.7646H87.4367L84.3367 39.6646C84.2167 40.038 84.1567 40.4247 84.1567 40.8246C84.1567 41.6247 84.4167 42.0246 84.9367 42.0246C85.1767 42.0246 85.4167 41.878 85.6567 41.5846L85.8967 41.7646C85.7501 42.1513 85.5167 42.458 85.1967 42.6846C84.8901 42.898 84.5301 43.0046 84.1167 43.0046C83.5967 43.0046 83.2034 42.838 82.9367 42.5046C82.6701 42.158 82.5367 41.6646 82.5367 41.0246C82.5367 40.5313 82.6167 39.9647 82.7767 39.3246C82.1767 40.5246 81.4701 41.438 80.6567 42.0646C79.8567 42.6913 78.9901 43.0046 78.0567 43.0046ZM78.7567 41.8446C79.8101 41.8446 80.7834 41.2246 81.6767 39.9846C82.5701 38.7446 83.3234 36.9646 83.9367 34.6446L84.1767 33.7246C84.0167 33.4446 83.8167 33.238 83.5767 33.1046C83.3501 32.958 83.0501 32.8846 82.6767 32.8846C81.7967 32.8846 80.2338 33.0313 79.3538 33.7246C78.4871 34.418 77.7738 35.3046 77.2138 36.3846C76.6538 37.4513 76.3738 38.498 76.3738 39.5246C76.3738 40.938 77.6234 41.8446 78.7567 41.8446Z" fill="#DEFCFF"/>
<path d="M90.4953 28.9646C90.4953 28.6313 90.6086 28.3513 90.8353 28.1246C91.0619 27.8846 91.3419 27.7646 91.6753 27.7646C92.0086 27.7646 92.2819 27.878 92.4953 28.1046C92.7219 28.3313 92.8353 28.618 92.8353 28.9646C92.8353 29.298 92.7219 29.578 92.4953 29.8046C92.2819 30.0313 92.0086 30.1446 91.6753 30.1446C91.3419 30.1446 91.0619 30.0313 90.8353 29.8046C90.6086 29.578 90.4953 29.298 90.4953 28.9646ZM89.9153 42.9646C89.3553 42.9646 88.9086 42.798 88.5753 42.4646C88.2553 42.118 88.0953 41.618 88.0953 40.9646C88.0953 40.5246 88.1819 39.9913 88.3553 39.3646L89.8553 33.7246L84.0954 33.2246L82.1133 32.2446H92.0753L90.0953 39.6246C89.9753 40.1446 89.9153 40.558 89.9153 40.8646C89.9153 41.638 90.1953 42.0246 90.7553 42.0246C91.0486 42.0246 91.3019 41.878 91.5153 41.5846L91.7553 41.7846C91.6353 42.1313 91.4086 42.418 91.0753 42.6446C90.7553 42.858 90.3686 42.9646 89.9153 42.9646Z" fill="#DEFCFF"/>
<path d="M96.3367 43.0048C95.0301 43.0048 94.0034 42.6181 93.2567 41.8448C92.5101 41.0714 92.1367 39.9981 92.1367 38.6248C92.1367 37.4114 92.4234 36.2914 92.9967 35.2648C93.5834 34.2248 94.3701 33.4048 95.3567 32.8048C96.3434 32.1914 97.4234 31.8848 98.5967 31.8848C99.9034 31.8848 100.923 32.2648 101.657 33.0248C102.403 33.7848 102.777 34.8514 102.777 36.2248C102.777 37.4514 102.483 38.5848 101.897 39.6248C101.323 40.6514 100.543 41.4714 99.5567 42.0848C98.5701 42.6981 97.4967 43.0048 96.3367 43.0048ZM94.0567 38.9648C94.0567 39.9781 94.2501 40.7581 94.6367 41.3048C95.0367 41.8514 95.6101 42.1248 96.3567 42.1248C97.1301 42.1248 97.8634 41.8381 98.5567 41.2648C99.2501 40.6914 99.8034 39.9314 100.217 38.9848C100.63 38.0248 100.837 36.9981 100.837 35.9048C100.837 34.8781 100.643 34.0981 100.257 33.5648C99.8701 33.0314 99.3034 32.7648 98.5567 32.7648C97.7701 32.7648 97.0301 33.0514 96.3367 33.6248C95.6434 34.1848 95.0901 34.9448 94.6767 35.9048C94.2634 36.8514 94.0567 37.8714 94.0567 38.9648Z" fill="#DEFCFF"/>
</svg>
