<svg width="66" height="66" viewBox="0 0 66 66" fill="none" xmlns="http://www.w3.org/2000/svg">
<g clip-path="url(#clip0_695_3690)">
<rect width="66" height="66" rx="24" fill="white"/>
<rect x="-5" y="-5" width="76" height="76" rx="38" fill="url(#paint0_linear_695_3690)"/>
<g filter="url(#filter0_di_695_3690)">
<path d="M30.9084 35.7891H48V46.1196H46.5658V39.8391C46.5658 39.7804 46.506 39.7217 46.4462 39.8391C45.7291 41.0131 41.6653 47 33.1195 47C24.5737 47 18 40.9543 18 33.5C18 26.0457 24.753 20 33.1195 20C42.0867 20 48 26.9308 48 31.9739H41.9642C40.6494 30.3304 38.9163 28.7457 36.7649 27.3957C30.5498 23.3457 23.737 22.7 21.5259 25.987C19.3147 29.2739 22.5418 35.2022 28.6972 39.2522C40.6427 47.0739 45.4832 38.6644 46.0339 37.5994C46.0604 37.5481 46.0203 37.4913 45.9617 37.4913H30.6096V35.7891H30.9084Z" fill="white"/>
</g>
</g>
<defs>
<filter id="filter0_di_695_3690" x="14" y="16" width="38" height="39" filterUnits="userSpaceOnUse" color-interpolation-filters="sRGB">
<feFlood flood-opacity="0" result="BackgroundImageFix"/>
<feColorMatrix in="SourceAlpha" type="matrix" values="0 0 0 0 0 0 0 0 0 0 0 0 0 0 0 0 0 0 127 0" result="hardAlpha"/>
<feOffset dy="4"/>
<feGaussianBlur stdDeviation="2"/>
<feComposite in2="hardAlpha" operator="out"/>
<feColorMatrix type="matrix" values="0 0 0 0 0.154441 0 0 0 0 0.161626 0 0 0 0 0.202768 0 0 0 1 0"/>
<feBlend mode="normal" in2="BackgroundImageFix" result="effect1_dropShadow_695_3690"/>
<feBlend mode="normal" in="SourceGraphic" in2="effect1_dropShadow_695_3690" result="shape"/>
<feColorMatrix in="SourceAlpha" type="matrix" values="0 0 0 0 0 0 0 0 0 0 0 0 0 0 0 0 0 0 127 0" result="hardAlpha"/>
<feOffset dy="-4"/>
<feGaussianBlur stdDeviation="2"/>
<feComposite in2="hardAlpha" operator="arithmetic" k2="-1" k3="1"/>
<feColorMatrix type="matrix" values="0 0 0 0 0.0823529 0 0 0 0 0.0862745 0 0 0 0 0.105882 0 0 0 0.3 0"/>
<feBlend mode="normal" in2="shape" result="effect2_innerShadow_695_3690"/>
</filter>
<linearGradient id="paint0_linear_695_3690" x1="35.5" y1="12" x2="34.5" y2="67.5" gradientUnits="userSpaceOnUse">
<stop stop-color="#14151A"/>
<stop offset="1" stop-color="#121216"/>
</linearGradient>
<clipPath id="clip0_695_3690">
<rect width="66" height="66" rx="24" fill="white"/>
</clipPath>
</defs>
</svg>
