<svg width="16" height="16" viewBox="0 0 16 16" fill="none" xmlns="http://www.w3.org/2000/svg">
<path d="M7.5 9.83425C7.5 9.09787 6.90305 8.50092 6.16667 8.50092H2.2C2.08954 8.50092 2 8.41137 2 8.30092L2 7.70091C2 7.59046 2.08954 7.50092 2.2 7.50092H6.16667C6.90305 7.50092 7.5 6.90396 7.5 6.16758V2.20092C7.5 2.09046 7.58954 2.00092 7.7 2.00092H8.3C8.41046 2.00092 8.5 2.09046 8.5 2.20092V6.16758C8.5 6.90396 9.09695 7.50092 9.83333 7.50092L13.8 7.50092C13.9105 7.50092 14 7.59046 14 7.70092V8.30092C14 8.41137 13.9105 8.50092 13.8 8.50092H9.83333C9.09695 8.50092 8.5 9.09787 8.5 9.83425V13.8009C8.5 13.9114 8.41046 14.0009 8.3 14.0009H7.7C7.58954 14.0009 7.5 13.9114 7.5 13.8009L7.5 9.83425Z" fill="white"/>
</svg>
