<svg width="17" height="16" viewBox="0 0 17 16" fill="none" xmlns="http://www.w3.org/2000/svg">
<g clip-path="url(#clip0_683_5043)">
<path d="M16.5004 8.22794C14.696 8.7882 12.4066 8.94455 10.9773 10.2801C9.42519 11.7328 9.28937 14.1107 8.50684 15.9934C8.27401 15.9934 7.43327 12.1367 7.09051 11.4918C5.80999 9.09439 2.77038 8.86637 0.506836 8.11067C2.67337 7.30937 5.33788 7.20514 6.78008 5.1009C7.84718 3.53738 7.67903 1.66116 8.50684 -0.0065918C9.29584 2.05855 9.34758 4.82077 11.3395 6.26702C12.8399 7.35497 14.3468 7.28331 15.9248 7.79145C16.177 7.86963 16.468 7.86963 16.5068 8.22794H16.5004Z" fill="#DEFCFF"/>
</g>
<defs>
<clipPath id="clip0_683_5043">
<rect width="16" height="16" fill="white" transform="translate(0.5)"/>
</clipPath>
</defs>
</svg>
